<svg width="24" height="28" viewBox="0 0 24 28" fill="none" xmlns="http://www.w3.org/2000/svg">
<path d="M19.8784 14.8903C19.9075 12.7288 21.1202 10.6836 23.0441 9.55149C21.8304 7.89236 19.7975 6.84043 17.6825 6.77709C15.4266 6.55045 13.2397 8.06913 12.0901 8.06913C10.9183 8.06913 9.14845 6.79959 7.24256 6.83712C4.75832 6.91395 2.44238 8.26584 1.23375 10.3447C-1.36434 14.6502 0.573598 20.9778 3.06235 24.458C4.30753 26.1622 5.76278 28.0658 7.66695 27.9983C9.53029 27.9243 10.2262 26.861 12.4754 26.861C14.7038 26.861 15.3567 27.9983 17.2995 27.9553C19.2989 27.9243 20.5587 26.2436 21.7602 24.5233C22.6548 23.309 23.3433 21.967 23.8 20.5469C21.4503 19.5956 19.8811 17.3323 19.8784 14.8903Z" fill="white"/>
<path d="M16.2087 4.48832C17.2989 3.23566 17.836 1.62558 17.7059 0C16.0404 0.167441 14.5019 0.929367 13.3969 2.13397C12.3165 3.31092 11.7542 4.89268 11.8605 6.45612C13.5267 6.47254 15.1646 5.73127 16.2087 4.48832Z" fill="white"/>
</svg>
