<svg width="10" height="16" viewBox="0 0 10 16" fill="none" xmlns="http://www.w3.org/2000/svg">
<path d="M5.84504 7.805L0.385045 13.265C0.128378 13.5217 4.3869e-05 13.8483 4.3869e-05 14.245C4.3869e-05 14.6417 0.128378 14.9683 0.385045 15.225C0.641711 15.4817 0.968378 15.61 1.36504 15.61C1.76171 15.61 2.08838 15.4817 2.34504 15.225L8.78504 8.785C8.92504 8.645 9.02398 8.49333 9.08184 8.33C9.13971 8.16667 9.16911 7.99167 9.17004 7.805C9.17004 7.61833 9.14064 7.44333 9.08184 7.28C9.02304 7.11667 8.92411 6.965 8.78504 6.825L2.34504 0.384999C2.08838 0.128333 1.76171 0 1.36504 0C0.968378 0 0.641711 0.128333 0.385045 0.384999C0.128378 0.641666 4.3869e-05 0.968333 4.3869e-05 1.365C4.3869e-05 1.76167 0.128378 2.08833 0.385045 2.345L5.84504 7.805Z" fill="white"/>
</svg>
